<svg data-v-423bf9ae="" xmlns="http://www.w3.org/2000/svg" viewBox="0 0 330.64630609160736 185" class="iconAboveSlogan"><!----><!----><!----><g data-v-423bf9ae="" id="c7ebcad3-d593-4160-8952-dd0e272f7860" fill="#ffffff" transform="matrix(5.385996243345147,0,0,5.385996243345147,0.538595693953198,84.36445422307781)"><path d="M2.23 7.94L2.23 7.94L4.07 7.74Q4.20 7.74 4.32 7.81Q4.44 7.88 4.44 7.99Q4.44 8.11 4.17 8.22L4.17 8.22Q3.00 8.68 2.10 8.68Q1.20 8.68 0.55 8.28Q-0.10 7.88-0.10 7.08L-0.10 7.08Q-0.10 6.03 1.05 5.18Q2.20 4.33 3.88 3.89Q5.56 3.46 7.15 3.46Q8.75 3.46 9.86 3.74Q10.98 4.03 11.70 4.69Q12.43 5.35 12.43 6.30L12.43 6.30Q12.43 6.94 11.67 7.57Q10.91 8.19 9.90 8.57Q8.90 8.96 7.94 9.11L7.94 9.11Q7.69 9.20 7.69 9.28L7.69 9.28Q7.69 9.39 9.32 11.33Q10.95 13.27 10.95 13.64Q10.95 14 10.52 14.30Q10.09 14.60 9.57 14.60Q9.04 14.60 8.62 14.47Q8.20 14.34 7.81 14.06Q7.41 13.78 7.10 13.52Q6.79 13.27 6.42 12.83Q6.05 12.39 5.87 12.17L5.87 12.17Q5.24 11.35 4.94 10.92L4.94 10.92Q3.32 12.92 3.19 13.04Q3.05 13.16 2.98 13.22Q2.91 13.29 2.87 13.33L2.87 13.33Q2.76 13.44 2.59 13.44Q2.42 13.44 2.23 13.09L2.23 13.09Q2.30 12.91 3.02 11.86Q3.75 10.81 4.13 10.40L4.13 10.40Q4.31 10.14 4.31 10.07Q4.31 10.00 4.14 9.88L4.14 9.88Q3.86 9.66 3.86 9.40Q3.86 9.14 4.26 9.07L4.26 9.07L5.36 8.86Q6.65 7.20 6.92 6.93Q7.18 6.66 7.45 6.66Q7.71 6.66 7.71 6.92L7.71 6.92Q7.71 7.10 7.42 7.49L7.42 7.49L6.64 8.60Q6.76 8.60 7.86 8.32Q8.96 8.04 10.15 7.55Q11.34 7.06 11.34 6.64L11.34 6.64Q11.34 6.02 9.60 6.02L9.60 6.02Q8.32 6.02 6.53 6.34Q4.75 6.66 3.45 7.12Q2.16 7.57 2.16 7.91L2.16 7.91Q2.16 7.94 2.23 7.94ZM13.62 10.71L13.62 10.71L14.31 10.64Q14.78 10.64 14.78 11.12L14.78 11.12Q14.78 11.37 14.32 11.68Q13.86 11.98 13.39 12.24Q12.92 12.50 12.92 12.64L12.92 12.64Q12.92 12.74 13.15 12.77L13.15 12.77Q13.64 12.77 15.01 11.98Q16.38 11.20 16.48 11.20L16.48 11.20Q16.67 11.20 16.67 11.40L16.67 11.40Q16.66 11.54 15.79 12.09Q14.91 12.64 13.74 13.15Q12.57 13.66 11.96 13.66L11.96 13.66Q10.99 13.66 10.99 12.64L10.99 12.64Q10.99 12.35 11.39 12.00Q11.79 11.65 12.19 11.40Q12.59 11.14 12.59 11.08Q12.59 11.02 12.39 10.93L12.39 10.93Q11.80 10.68 11.80 10.26L11.80 10.26Q11.80 9.48 13.11 8.77Q14.42 8.06 15.54 8.06L15.54 8.06Q16.16 8.06 16.56 8.29Q16.97 8.53 16.97 9.00Q16.97 9.46 16.32 9.87Q15.67 10.28 15.39 10.28L15.39 10.28Q15.27 10.28 15.18 10.22Q15.09 10.16 15.09 10.09Q15.09 10.02 15.48 9.86Q15.86 9.70 15.86 9.56L15.86 9.56Q15.86 9.49 15.66 9.49Q15.46 9.49 14.34 9.93Q13.22 10.37 13.22 10.56L13.22 10.56Q13.22 10.71 13.62 10.71ZM16.65 7.78L16.65 7.78Q16.65 7.56 17.85 7.38Q19.05 7.20 20.43 7.13L20.43 7.13Q21.57 6.09 22.50 5.36L22.50 5.36L22.81 5.11Q23.02 5.11 23.02 5.42L23.02 5.42L23.04 6.10Q23.00 6.26 22.46 7.07L22.46 7.07L23.14 7.07Q24.70 7.07 24.94 7.37Q25.19 7.67 25.19 7.85L25.19 7.85Q25.19 8.09 24.71 8.11Q24.23 8.12 21.73 8.12L21.73 8.12Q19.73 10.18 18.59 11.77L18.59 11.77Q18.16 12.36 17.84 12.82Q17.51 13.29 17.34 13.47Q17.16 13.66 17.01 13.66L17.01 13.66Q16.55 13.66 16.23 13.36Q15.90 13.05 15.90 12.60L15.90 12.60Q15.90 11.37 19.33 8.13L19.33 8.13L17.18 8.13Q16.65 8.13 16.65 7.78ZM22.86 8.20L22.86 8.20Q22.96 8.20 23.04 8.29Q23.13 8.39 23.13 8.50Q23.13 8.62 22.99 8.81L22.99 8.81Q22.44 9.48 22.27 9.65Q22.09 9.83 22.09 9.88Q22.09 9.94 22.18 9.94Q22.27 9.94 22.93 9.70Q23.59 9.45 23.80 9.45Q24.01 9.45 24.23 9.63Q24.46 9.80 24.46 10.07Q24.46 10.35 23.60 11.32Q22.75 12.29 22.75 12.59L22.75 12.59Q22.75 12.64 22.79 12.64L22.79 12.64Q22.86 12.64 23.04 12.55Q23.23 12.46 23.27 12.46L23.27 12.46Q23.42 12.46 23.42 12.57L23.42 12.57Q23.42 13.01 22.74 13.44Q22.05 13.87 21.58 13.87Q21.11 13.87 20.82 13.62Q20.52 13.36 20.52 12.92Q20.52 12.49 20.95 11.95Q21.38 11.41 21.83 11.19Q22.29 10.96 22.29 10.82L22.29 10.82Q22.29 10.78 22.27 10.77L22.27 10.77Q21.66 11.02 21.27 11.02L21.27 11.02Q20.50 11.02 20.50 10.57L20.50 10.57Q20.50 10.05 21.39 9.21Q22.29 8.37 22.86 8.20ZM28.34 10.11L28.34 10.11Q28.34 10.49 28.78 10.49L28.78 10.49Q29.20 10.49 29.71 10.28Q30.21 10.07 30.25 10.07Q30.30 10.07 30.34 10.14Q30.39 10.21 30.39 10.28L30.39 10.28Q30.39 10.43 29.74 10.68Q29.09 10.92 28.80 10.92Q28.50 10.92 28.38 10.91Q28.27 10.91 28.20 11.06L28.20 11.06Q27.16 13.01 26.14 13.51L26.14 13.51Q25.69 13.73 25.19 13.73Q24.70 13.73 24.38 13.40Q24.07 13.08 24.07 12.36L24.07 12.36Q24.07 11.37 24.72 10.51Q25.37 9.65 26.19 9.21Q27.02 8.78 27.69 8.78L27.69 8.78Q28.83 8.90 28.83 9.46L28.83 9.46Q28.83 9.62 28.75 9.74Q28.67 9.86 28.62 9.88Q28.57 9.90 28.50 9.91L28.50 9.91Q28.34 9.95 28.34 10.11ZM27.19 10.75Q26.74 11.09 26.31 11.61Q25.89 12.12 25.89 12.45Q25.89 12.78 26.07 12.78L26.07 12.78Q26.35 12.78 27.10 11.92Q27.85 11.06 27.85 10.50L27.85 10.50Q27.85 10.42 27.74 10.42Q27.64 10.42 27.19 10.75ZM34.01 7.94L34.01 7.94L35.85 7.74Q35.98 7.74 36.10 7.81Q36.22 7.88 36.22 7.99Q36.22 8.11 35.95 8.22L35.95 8.22Q34.78 8.68 33.88 8.68Q32.98 8.68 32.33 8.28Q31.68 7.88 31.68 7.08L31.68 7.08Q31.68 6.03 32.83 5.18Q33.98 4.33 35.66 3.89Q37.34 3.46 38.93 3.46Q40.53 3.46 41.64 3.74Q42.76 4.03 43.48 4.69Q44.21 5.35 44.21 6.30L44.21 6.30Q44.21 6.94 43.45 7.57Q42.69 8.19 41.69 8.57Q40.68 8.96 39.72 9.11L39.72 9.11Q39.47 9.20 39.47 9.28L39.47 9.28Q39.47 9.39 41.10 11.33Q42.73 13.27 42.73 13.64Q42.73 14 42.30 14.30Q41.87 14.60 41.35 14.60Q40.82 14.60 40.40 14.47Q39.98 14.34 39.59 14.06Q39.19 13.78 38.88 13.52Q38.57 13.27 38.20 12.83Q37.83 12.39 37.65 12.17L37.65 12.17Q37.02 11.35 36.72 10.92L36.72 10.92Q35.10 12.92 34.97 13.04Q34.83 13.16 34.76 13.22Q34.69 13.29 34.65 13.33L34.65 13.33Q34.54 13.44 34.37 13.44Q34.20 13.44 34.01 13.09L34.01 13.09Q34.08 12.91 34.80 11.86Q35.53 10.81 35.91 10.40L35.91 10.40Q36.09 10.14 36.09 10.07Q36.09 10.00 35.92 9.88L35.92 9.88Q35.64 9.66 35.64 9.40Q35.64 9.14 36.04 9.07L36.04 9.07L37.14 8.86Q38.43 7.20 38.70 6.93Q38.96 6.66 39.23 6.66Q39.49 6.66 39.49 6.92L39.49 6.92Q39.49 7.10 39.20 7.49L39.20 7.49L38.42 8.60Q38.54 8.60 39.64 8.32Q40.74 8.04 41.93 7.55Q43.12 7.06 43.12 6.64L43.12 6.64Q43.12 6.02 41.38 6.02L41.38 6.02Q40.10 6.02 38.31 6.34Q36.53 6.66 35.23 7.12Q33.94 7.57 33.94 7.91L33.94 7.91Q33.94 7.94 34.01 7.94ZM46.66 12.87L46.66 12.87Q46.66 12.94 46.76 12.96L46.76 12.96Q46.86 12.96 47.44 12.56Q48.02 12.17 48.10 12.12Q48.17 12.08 48.24 12.08L48.24 12.08Q48.44 12.08 48.44 12.27Q48.44 12.46 47.45 13.10Q46.47 13.75 46.06 13.75L46.06 13.75Q45.89 13.75 45.70 13.61Q45.51 13.47 45.51 13.28Q45.51 13.09 45.61 12.87Q45.71 12.64 45.71 12.56Q45.71 12.49 45.67 12.49Q45.63 12.49 45.58 12.52L45.58 12.52Q44.23 13.54 43.58 13.54L43.58 13.54Q43.22 13.54 43.01 13.27Q42.80 13.01 42.76 12.74L42.76 12.74L42.73 12.47Q42.73 12.01 43.09 11.40Q43.44 10.79 44.02 10.24Q44.60 9.69 45.45 9.31Q46.30 8.93 47.18 8.93L47.18 8.93Q47.66 8.93 48.07 9.18Q48.48 9.44 48.48 9.77Q48.48 10.11 47.82 10.18L47.82 10.18Q47.33 10.29 46.21 10.98Q45.08 11.68 45.08 12.04L45.08 12.04Q45.08 12.19 45.23 12.19L45.23 12.19Q45.51 12.19 46.56 11.40Q47.60 10.60 47.81 10.60Q48.02 10.60 48.02 10.85L48.02 10.85Q48.02 11.03 47.89 11.19Q47.75 11.35 47.70 11.42L47.70 11.42Q47.59 11.56 47.12 12.05Q46.66 12.53 46.66 12.87ZM53.83 11.21L53.83 11.21Q53.82 11.35 52.92 11.95Q52.02 12.54 50.85 13.10Q49.67 13.66 49.16 13.66Q48.65 13.66 48.29 13.35Q47.92 13.03 47.92 12.63L47.92 12.63Q47.92 11.79 48.67 10.90Q49.42 10.01 50.41 9.46Q51.39 8.90 52.09 8.90Q52.78 8.90 53.13 9.08Q53.48 9.25 53.48 9.73Q53.48 10.21 52.87 10.83Q52.26 11.45 51.83 11.45L51.83 11.45Q51.55 11.45 51.55 11.28L51.55 11.28Q51.55 11.17 51.69 11.09L51.69 11.09Q51.84 11.00 52.18 10.70Q52.51 10.39 52.51 10.28L52.51 10.28Q52.51 10.23 52.43 10.23L52.43 10.23Q51.94 10.23 51.04 11.13Q50.15 12.03 50.15 12.47L50.15 12.47Q50.15 12.70 50.39 12.70Q50.64 12.70 51.18 12.41Q51.73 12.12 52.53 11.63Q53.33 11.14 53.45 11.08Q53.56 11.02 53.63 11.02L53.63 11.02Q53.83 11.02 53.83 11.21ZM61.17 5.35L61.17 5.35L57.74 9.25Q57.74 9.34 57.82 9.34Q57.90 9.34 58.37 9.16Q58.84 8.99 59.15 8.99L59.15 8.99Q59.74 8.99 59.74 9.56L59.74 9.56Q59.74 10.43 57.29 11.47L57.29 11.47Q57.29 11.58 58.18 12.63Q59.07 13.68 59.07 13.93L59.07 13.93Q59.07 14.49 58.13 14.49Q57.20 14.49 56.38 13.66Q55.55 12.84 55.55 11.94L55.55 11.94Q55.55 11.80 55.50 11.80Q55.45 11.80 55.38 11.88Q55.30 11.96 55.05 12.23Q54.80 12.50 54.60 12.70L54.60 12.70Q54.04 13.29 53.73 13.29Q53.42 13.29 53.13 13.02Q52.84 12.75 52.84 12.36L52.84 12.36Q52.84 11.75 53.85 10.35Q54.87 8.95 56.19 7.58Q57.51 6.22 58.87 5.17Q60.23 4.12 60.84 4.12L60.84 4.12Q61.04 4.12 61.17 4.42Q61.29 4.72 61.29 4.93Q61.29 5.14 61.17 5.35ZM58.63 9.94L58.63 9.94Q58.63 9.76 58.38 9.76Q58.13 9.76 57.57 10.08Q57.01 10.40 56.60 10.73Q56.20 11.06 56.20 11.12Q56.20 11.19 56.34 11.19L56.34 11.19Q56.81 11.19 57.72 10.76Q58.63 10.33 58.63 9.94Z"></path></g><!----><g data-v-423bf9ae="" id="426eac03-8a00-4d50-970e-1f9bebdcd583" transform="matrix(1.1093034100664343,0,0,1.1093034100664343,110.53493847185902,-10.03116826799473)" stroke="none" fill="#FFFFFF"><path d="M87.557 17.296v9.206c3.602 5.204 6.009 13.279 6.009 22.253 0 15.283-6.869 28.198-14.994 28.198-4.161 0-7.97-3.407-10.709-8.748l-4.726 4.726c3.871 6.461 9.3 10.457 15.435 10.457C90.586 83.389 100 68.175 100 48.756c0-14.184-5.053-26.049-12.443-31.46z"></path><path d="M74.687 9.435c3.539 0 6.436 2.897 6.436 6.435l.006 23.535v6.436l-4.55 4.549-38.297 38.297c-1.251 1.251-2.897 1.879-4.55 1.879s-3.3-.628-4.549-1.879l-27.307-27.3c-2.501-2.5-2.501-6.598 0-9.099l38.297-38.292c2.501-2.507 4.55-4.549 4.55-4.549s2.897-.013 6.435-.013h23.529M62.244 34.76a6.41 6.41 0 004.549-1.885 6.43 6.43 0 000-9.1c-1.256-1.257-2.902-1.885-4.549-1.885s-3.294.628-4.55 1.885a6.426 6.426 0 000 9.1 6.413 6.413 0 004.55 1.885"></path></g><!----><g data-v-423bf9ae="" id="cc2eefda-4469-42a9-96f0-01d305cc125b" fill="#ffffff" transform="matrix(0.7203251581918909,0,0,0.7203251581918909,41.88790414325237,200.9487657296357)"><path d="M0.23 0.91Q0.57 1.53 0.38 2.22L0.38 2.22Q0.21 2.87-0.35 3.34L-0.35 3.34Q-0.52 3.48-0.32 3.53L-0.32 3.53Q-0.17 3.58-0.01 3.57L-0.01 3.57Q0.62 3.51 0.97 3.22L0.97 3.22Q1.60 2.70 1.82 1.98L1.82 1.98Q2.06 1.20 1.70 0.51L1.70 0.51Q1.56 0.27 0.85 0.50L0.85 0.50Q0.57 0.59 0.39 0.70L0.39 0.70Q0.19 0.83 0.23 0.91L0.23 0.91ZM2.63 0.91Q2.96 1.53 2.78 2.22L2.78 2.22Q2.60 2.87 2.04 3.34L2.04 3.34Q1.87 3.48 2.07 3.53L2.07 3.53Q2.22 3.58 2.39 3.57L2.39 3.57Q3.01 3.51 3.36 3.22L3.36 3.22Q3.99 2.70 4.21 1.98L4.21 1.98Q4.45 1.20 4.09 0.51L4.09 0.51Q3.95 0.27 3.24 0.50L3.24 0.50Q2.97 0.59 2.78 0.70L2.78 0.70Q2.58 0.83 2.63 0.91L2.63 0.91ZM18.97 5.31Q18.82 6.24 17.92 7.18L17.92 7.18Q17.73 7.38 17.49 7.58L17.49 7.58Q17.43 7.63 17.37 7.68L17.37 7.68Q17.15 7.59 16.90 7.58L16.90 7.58Q17.46 4.74 17.60 2.66L17.60 2.66Q17.87 2.80 18.11 2.99L18.11 2.99Q18.62 3.39 18.85 4.03L18.85 4.03Q19.08 4.65 18.97 5.31L18.97 5.31ZM16.00 2.40Q16.00 2.40 16.01 2.39L16.01 2.39Q16.00 2.40 16.00 2.40L16.00 2.40ZM20.93 11.42Q20.20 10.88 18.67 8.99L18.67 8.99Q18.00 8.17 17.88 8.05L17.88 8.05Q18.34 7.84 18.77 7.50L18.77 7.50Q19.97 6.56 20.33 5.41L20.33 5.41Q20.58 4.60 20.37 3.84L20.37 3.84Q20.16 3.07 19.54 2.53L19.54 2.53Q18.29 1.46 16.22 1.88L16.22 1.88Q16.09 1.91 15.89 1.96L15.89 1.96Q15.16 2.14 15.22 2.37L15.22 2.37Q15.28 2.58 15.99 2.40L15.99 2.40Q16.06 2.39 16.11 2.38L16.11 2.38Q16.15 2.37 16.18 2.37L16.18 2.37Q16.06 5.11 14.83 10.79L14.83 10.79Q14.77 11.04 15.41 10.92L15.41 10.92Q15.72 10.87 15.97 10.75L15.97 10.75Q16.25 10.62 16.27 10.53L16.27 10.53Q16.56 9.17 16.66 8.72L16.66 8.72Q16.67 8.72 16.67 8.72L16.67 8.72Q16.67 8.72 16.67 8.72L16.67 8.72Q16.78 8.85 17.47 9.70L17.47 9.70Q18.79 11.34 19.55 11.92L19.55 11.92Q19.78 12.09 20.49 11.83L20.49 11.83Q20.68 11.76 20.82 11.67L20.82 11.67Q21.07 11.52 20.93 11.42L20.93 11.42ZM32.03 1.42Q31.32 1.19 30.13 1.57L30.13 1.57Q28.62 2.06 28.06 3.77L28.06 3.77Q27.71 4.83 27.89 6.11L27.89 6.11Q27.98 6.76 28.25 7.16L28.25 7.16Q27.83 7.38 27.54 7.70L27.54 7.70Q26.54 8.80 26.65 10.01L26.65 10.01Q26.71 10.70 27.19 11.11L27.19 11.11Q27.59 11.44 28.42 11.42L28.42 11.42Q29.25 11.39 29.96 10.95L29.96 10.95Q30.71 10.49 31.01 9.76L31.01 9.76Q31.07 9.61 30.79 9.60L30.79 9.60Q30.62 9.59 30.43 9.63L30.43 9.63Q29.67 9.76 29.57 10.02L29.57 10.02Q29.37 10.51 29.03 10.80L29.03 10.80Q29.01 10.81 29.00 10.82L29.00 10.82Q28.95 10.81 28.94 10.81L28.94 10.81Q28.88 10.79 28.79 10.75L28.79 10.75Q28.63 10.68 28.47 10.52L28.47 10.52Q28.18 10.23 28.11 9.63L28.11 9.63Q28.01 8.83 28.64 7.86L28.64 7.86Q28.72 7.74 28.83 7.62L28.83 7.62Q29.04 7.70 29.31 7.72L29.31 7.72Q29.72 7.74 30.21 7.51L30.21 7.51Q30.63 7.32 30.47 7.18L30.47 7.18Q30.19 6.90 29.76 6.84L29.76 6.84Q29.72 6.79 29.69 6.75L29.69 6.75Q29.48 6.45 29.37 5.89L29.37 5.89Q29.18 4.89 29.37 4.00L29.37 4.00Q29.63 2.70 30.40 2.04L30.40 2.04Q30.45 2.00 30.55 1.93L30.55 1.93Q30.56 1.93 30.56 1.93L30.56 1.93Q30.69 1.94 30.67 1.93L30.67 1.93Q31.25 2.02 31.13 2.62L31.13 2.62Q31.08 2.86 31.71 2.75L31.71 2.75Q32.02 2.69 32.27 2.58L32.27 2.58Q32.55 2.45 32.57 2.36L32.57 2.36Q32.71 1.63 32.03 1.42L32.03 1.42ZM43.20 2.35Q42.24 2.17 41.23 2.15L41.23 2.15Q41.14 2.03 40.66 2.11L40.66 2.11Q40.56 2.13 40.45 2.16L40.45 2.16Q39.38 2.22 38.34 2.46L38.34 2.46Q37.60 2.63 37.67 2.88L37.67 2.88Q37.72 3.08 38.45 2.91L38.45 2.91Q38.45 2.91 38.47 2.90L38.47 2.90Q38.48 2.90 38.49 2.89L38.49 2.89Q38.57 2.88 38.73 2.85L38.73 2.85Q38.89 2.82 39.12 2.80L39.12 2.80Q39.40 2.76 39.73 2.75L39.73 2.75Q38.32 7.40 37.92 10.96L37.92 10.96Q37.91 11.02 38.14 11.03L38.14 11.03Q38.35 11.04 38.63 10.99L38.63 10.99Q39.35 10.86 39.38 10.56L39.38 10.56Q39.76 7.19 41.08 2.78L41.08 2.78Q41.55 2.82 41.99 2.91L41.99 2.91Q42.42 2.99 43.01 2.72L43.01 2.72Q43.17 2.65 43.26 2.54L43.26 2.54Q43.41 2.39 43.20 2.35L43.20 2.35ZM52.85 5.31Q52.70 6.24 51.80 7.18L51.80 7.18Q51.61 7.38 51.37 7.58L51.37 7.58Q51.31 7.63 51.25 7.68L51.25 7.68Q51.03 7.59 50.78 7.58L50.78 7.58Q51.34 4.74 51.48 2.66L51.48 2.66Q51.75 2.80 51.99 2.99L51.99 2.99Q52.50 3.39 52.73 4.03L52.73 4.03Q52.96 4.65 52.85 5.31L52.85 5.31ZM49.88 2.40Q49.88 2.40 49.89 2.39L49.89 2.39Q49.88 2.40 49.88 2.40L49.88 2.40ZM54.81 11.42Q54.08 10.88 52.55 8.99L52.55 8.99Q51.88 8.17 51.76 8.05L51.76 8.05Q52.22 7.84 52.65 7.50L52.65 7.50Q53.85 6.56 54.21 5.41L54.21 5.41Q54.46 4.60 54.25 3.84L54.25 3.84Q54.04 3.07 53.42 2.53L53.42 2.53Q52.17 1.46 50.10 1.88L50.10 1.88Q49.97 1.91 49.77 1.96L49.77 1.96Q49.03 2.14 49.10 2.37L49.10 2.37Q49.16 2.58 49.87 2.40L49.87 2.40Q49.94 2.39 49.98 2.38L49.98 2.38Q50.03 2.37 50.06 2.37L50.06 2.37Q49.94 5.11 48.71 10.79L48.71 10.79Q48.65 11.04 49.29 10.92L49.29 10.92Q49.59 10.87 49.85 10.75L49.85 10.75Q50.13 10.62 50.15 10.53L50.15 10.53Q50.44 9.17 50.54 8.72L50.54 8.72Q50.54 8.72 50.54 8.72L50.54 8.72Q50.55 8.72 50.55 8.72L50.55 8.72Q50.66 8.85 51.34 9.70L51.34 9.70Q52.66 11.34 53.43 11.92L53.43 11.92Q53.66 12.09 54.37 11.83L54.37 11.83Q54.56 11.76 54.70 11.67L54.70 11.67Q54.95 11.52 54.81 11.42L54.81 11.42ZM64.44 5.20Q64.31 6.64 64.05 7.92L64.05 7.92Q63.64 9.88 62.86 10.64L62.86 10.64Q62.77 10.55 62.70 10.38L62.70 10.38Q62.51 9.97 62.53 9.03L62.53 9.03Q62.56 7.34 63.13 5.48L63.13 5.48Q63.63 3.85 64.33 3.01L64.33 3.01Q64.40 3.25 64.45 3.62L64.45 3.62Q64.52 4.21 64.44 5.20L64.44 5.20ZM65.37 1.96Q65.16 1.79 64.42 2.05L64.42 2.05Q63.92 2.24 63.94 2.39L63.94 2.39Q63.69 2.48 63.51 2.63L63.51 2.63Q62.53 3.40 61.87 5.22L61.87 5.22Q61.32 6.70 61.13 8.50L61.13 8.50Q61.04 9.28 61.07 9.92L61.07 9.92Q61.11 10.77 61.48 11.13L61.48 11.13Q61.66 11.31 62.09 11.33L62.09 11.33Q62.63 11.36 63.46 11.02L63.46 11.02Q64.14 10.74 64.66 9.94L64.66 9.94Q65.13 9.21 65.45 7.85L65.45 7.85Q65.66 6.94 65.78 5.84L65.78 5.84Q65.95 4.44 65.95 3.78L65.95 3.78Q65.93 2.45 65.37 1.96L65.37 1.96ZM87.89 5.50Q88.34 4.74 88.55 3.53L88.55 3.53Q88.79 2.15 88.29 1.57L88.29 1.57Q88.00 1.22 87.25 1.27L87.25 1.27Q86.31 1.33 85.42 1.85L85.42 1.85Q84.16 2.59 83.56 4.34L83.56 4.34Q82.94 6.10 83.56 7.18L83.56 7.18Q83.85 7.68 85.22 8.17L85.22 8.17Q85.79 8.37 86.00 8.48L86.00 8.48Q86.43 8.74 86.52 9.11L86.52 9.11Q86.62 9.50 86.28 10.17L86.28 10.17Q86.10 10.51 85.82 10.76L85.82 10.76Q85.70 10.87 85.54 10.97L85.54 10.97Q85.47 11.02 85.45 11.03L85.45 11.03Q85.39 11.07 85.33 11.09L85.33 11.09Q85.42 11.05 85.30 11.10L85.30 11.10Q85.31 11.10 85.37 11.09L85.37 11.09Q85.33 11.09 85.28 11.09L85.28 11.09Q85.27 11.10 85.18 11.09L85.18 11.09Q85.13 11.09 84.98 11.05L84.98 11.05Q84.62 10.97 84.32 10.64L84.32 10.64Q84.10 10.39 84.01 9.93L84.01 9.93Q83.91 9.44 84.14 9.28L84.14 9.28Q84.33 9.13 84.31 9.06L84.31 9.06Q84.29 8.97 84.05 8.96L84.05 8.96Q83.43 8.95 83.02 9.24L83.02 9.24Q82.63 9.53 82.56 9.86L82.56 9.86Q82.48 10.20 82.63 10.62L82.63 10.62Q82.91 11.36 83.77 11.61L83.77 11.61Q84.66 11.87 85.93 11.37L85.93 11.37Q86.95 10.96 87.51 10.24L87.51 10.24Q87.89 9.76 87.98 9.24L87.98 9.24Q88.08 8.62 87.70 8.23L87.70 8.23Q87.43 7.96 86.87 7.75L86.87 7.75Q86.72 7.70 86.41 7.59L86.41 7.59Q86.11 7.50 85.98 7.44L85.98 7.44Q85.45 7.23 85.17 6.97L85.17 6.97Q84.87 6.69 84.77 5.96L84.77 5.96Q84.57 4.53 85.52 2.97L85.52 2.97Q85.93 2.29 86.44 1.95L86.44 1.95Q86.49 1.91 86.58 1.86L86.58 1.86Q86.58 1.86 86.63 1.84L86.63 1.84Q86.62 1.84 86.66 1.83L86.66 1.83Q86.63 1.84 86.67 1.83L86.67 1.83Q86.60 1.85 86.52 1.85L86.52 1.85Q86.54 1.85 86.53 1.85L86.53 1.85L86.55 1.85Q86.60 1.86 86.69 1.89L86.69 1.89Q86.70 1.89 86.80 1.96L86.80 1.96Q86.86 2.01 86.91 2.06L86.91 2.06Q87.02 2.20 87.09 2.45L87.09 2.45Q87.21 2.84 87.14 3.49L87.14 3.49Q87.02 4.81 86.45 5.76L86.45 5.76Q86.36 5.90 86.67 5.91L86.67 5.91Q86.86 5.92 87.03 5.89L87.03 5.89Q87.73 5.76 87.89 5.50L87.89 5.50ZM99.98 2.35Q99.03 2.17 98.02 2.15L98.02 2.15Q97.92 2.03 97.45 2.11L97.45 2.11Q97.35 2.13 97.23 2.16L97.23 2.16Q96.17 2.22 95.13 2.46L95.13 2.46Q94.39 2.63 94.46 2.88L94.46 2.88Q94.51 3.08 95.23 2.91L95.23 2.91Q95.24 2.91 95.25 2.90L95.25 2.90Q95.27 2.90 95.28 2.89L95.28 2.89Q95.35 2.88 95.51 2.85L95.51 2.85Q95.68 2.82 95.90 2.80L95.90 2.80Q96.19 2.76 96.52 2.75L96.52 2.75Q95.10 7.40 94.71 10.96L94.71 10.96Q94.70 11.02 94.92 11.03L94.92 11.03Q95.14 11.04 95.42 10.99L95.42 10.99Q96.14 10.86 96.17 10.56L96.17 10.56Q96.54 7.19 97.86 2.78L97.86 2.78Q98.33 2.82 98.77 2.91L98.77 2.91Q99.21 2.99 99.80 2.72L99.80 2.72Q99.96 2.65 100.05 2.54L100.05 2.54Q100.19 2.39 99.98 2.35L99.98 2.35ZM111.56 1.12Q111.53 0.90 110.79 1.07L110.79 1.07Q110.06 1.25 110.10 1.51L110.10 1.51Q110.28 2.73 110.06 4.12L110.06 4.12Q109.79 5.76 109.04 6.75L109.04 6.75Q108.89 6.95 108.64 7.16L108.64 7.16Q108.57 7.23 108.46 7.29L108.46 7.29Q108.47 7.29 108.38 7.34L108.38 7.34L108.38 7.34Q108.38 7.34 108.38 7.34L108.38 7.34Q108.30 7.36 108.23 7.38L108.23 7.38L108.23 7.37Q108.22 7.37 108.21 7.37L108.21 7.37Q108.18 7.36 108.11 7.35L108.11 7.35Q108.10 7.35 108.08 7.33L108.08 7.33Q108.07 7.33 108.05 7.33L108.05 7.33Q107.45 7.06 107.46 5.83L107.46 5.83Q107.46 4.47 108.42 1.59L108.42 1.59Q108.51 1.34 107.84 1.46L107.84 1.46Q107.06 1.60 106.98 1.85L106.98 1.85Q106.11 4.44 106.01 5.87L106.01 5.87Q105.92 7.12 106.43 7.65L106.43 7.65Q106.70 7.94 107.31 7.96L107.31 7.96Q107.45 7.97 107.61 7.96L107.61 7.96Q107.56 8.59 107.03 10.68L107.03 10.68Q106.97 10.94 107.61 10.82L107.61 10.82Q107.92 10.77 108.17 10.65L108.17 10.65Q108.45 10.52 108.47 10.42L108.47 10.42Q109.01 8.28 109.07 7.59L109.07 7.59Q109.12 7.57 109.12 7.57L109.12 7.57Q110.71 6.90 111.32 4.67L111.32 4.67Q111.83 2.84 111.56 1.12L111.56 1.12ZM120.45 11.33Q119.41 11.36 118.97 11.16L118.97 11.16Q119.82 6.57 120.93 2.08L120.93 2.08Q121.00 1.83 120.35 1.95L120.35 1.95Q120.05 2.00 119.80 2.12L119.80 2.12Q119.52 2.25 119.50 2.34L119.50 2.34Q118.38 6.83 117.52 11.47L117.52 11.47Q117.43 11.56 117.50 11.61L117.50 11.61Q117.50 11.63 117.49 11.70L117.49 11.70Q117.48 11.74 117.48 11.78L117.48 11.78Q117.46 11.94 118.10 11.83L118.10 11.83Q118.59 11.95 119.50 11.92L119.50 11.92Q120.11 11.91 120.53 11.65L120.53 11.65Q120.71 11.54 120.69 11.44L120.69 11.44Q120.66 11.33 120.45 11.33L120.45 11.33ZM132.64 1.42Q131.93 1.19 130.75 1.57L130.75 1.57Q129.24 2.06 128.68 3.77L128.68 3.77Q128.33 4.83 128.51 6.11L128.51 6.11Q128.60 6.76 128.86 7.16L128.86 7.16Q128.45 7.38 128.15 7.70L128.15 7.70Q127.16 8.80 127.26 10.01L127.26 10.01Q127.33 10.70 127.81 11.11L127.81 11.11Q128.21 11.44 129.04 11.42L129.04 11.42Q129.87 11.39 130.57 10.95L130.57 10.95Q131.33 10.49 131.63 9.76L131.63 9.76Q131.69 9.61 131.41 9.60L131.41 9.60Q131.24 9.59 131.04 9.63L131.04 9.63Q130.29 9.76 130.19 10.02L130.19 10.02Q129.99 10.51 129.64 10.80L129.64 10.80Q129.63 10.81 129.62 10.82L129.62 10.82Q129.57 10.81 129.56 10.81L129.56 10.81Q129.49 10.79 129.41 10.75L129.41 10.75Q129.25 10.68 129.09 10.52L129.09 10.52Q128.80 10.23 128.73 9.63L128.73 9.63Q128.63 8.83 129.26 7.86L129.26 7.86Q129.34 7.74 129.45 7.62L129.45 7.62Q129.66 7.70 129.93 7.72L129.93 7.72Q130.33 7.74 130.83 7.51L130.83 7.51Q131.24 7.32 131.09 7.18L131.09 7.18Q130.81 6.90 130.38 6.84L130.38 6.84Q130.34 6.79 130.31 6.75L130.31 6.75Q130.10 6.45 129.99 5.89L129.99 5.89Q129.80 4.89 129.99 4.00L129.99 4.00Q130.25 2.70 131.02 2.04L131.02 2.04Q131.07 2.00 131.17 1.93L131.17 1.93Q131.17 1.93 131.17 1.93L131.17 1.93Q131.30 1.94 131.28 1.93L131.28 1.93Q131.87 2.02 131.75 2.62L131.75 2.62Q131.70 2.86 132.33 2.75L132.33 2.75Q132.64 2.69 132.89 2.58L132.89 2.58Q133.17 2.45 133.19 2.36L133.19 2.36Q133.33 1.63 132.64 1.42L132.64 1.42ZM144.08 5.50Q144.53 4.74 144.74 3.53L144.74 3.53Q144.98 2.15 144.48 1.57L144.48 1.57Q144.19 1.22 143.44 1.27L143.44 1.27Q142.50 1.33 141.61 1.85L141.61 1.85Q140.36 2.59 139.75 4.34L139.75 4.34Q139.13 6.10 139.75 7.18L139.75 7.18Q140.04 7.68 141.42 8.17L141.42 8.17Q141.98 8.37 142.19 8.48L142.19 8.48Q142.63 8.74 142.71 9.11L142.71 9.11Q142.81 9.50 142.47 10.17L142.47 10.17Q142.29 10.51 142.01 10.76L142.01 10.76Q141.89 10.87 141.74 10.97L141.74 10.97Q141.66 11.02 141.64 11.03L141.64 11.03Q141.58 11.07 141.52 11.09L141.52 11.09Q141.61 11.05 141.49 11.10L141.49 11.10Q141.50 11.10 141.56 11.09L141.56 11.09Q141.52 11.09 141.47 11.09L141.47 11.09Q141.46 11.10 141.37 11.09L141.37 11.09Q141.32 11.09 141.17 11.05L141.17 11.05Q140.81 10.97 140.51 10.64L140.51 10.64Q140.29 10.39 140.21 9.93L140.21 9.93Q140.10 9.44 140.33 9.28L140.33 9.28Q140.53 9.13 140.51 9.06L140.51 9.06Q140.48 8.97 140.25 8.96L140.25 8.96Q139.62 8.95 139.21 9.24L139.21 9.24Q138.82 9.53 138.75 9.86L138.75 9.86Q138.67 10.20 138.82 10.62L138.82 10.62Q139.10 11.36 139.97 11.61L139.97 11.61Q140.85 11.87 142.13 11.37L142.13 11.37Q143.14 10.96 143.71 10.24L143.71 10.24Q144.08 9.76 144.17 9.24L144.17 9.24Q144.27 8.62 143.89 8.23L143.89 8.23Q143.62 7.96 143.06 7.75L143.06 7.75Q142.91 7.70 142.60 7.59L142.60 7.59Q142.30 7.50 142.17 7.44L142.17 7.44Q141.64 7.23 141.36 6.97L141.36 6.97Q141.06 6.69 140.96 5.96L140.96 5.96Q140.76 4.53 141.71 2.97L141.71 2.97Q142.13 2.29 142.63 1.95L142.63 1.95Q142.68 1.91 142.78 1.86L142.78 1.86Q142.77 1.86 142.82 1.84L142.82 1.84Q142.81 1.84 142.85 1.83L142.85 1.83Q142.82 1.84 142.86 1.83L142.86 1.83Q142.79 1.85 142.71 1.85L142.71 1.85Q142.73 1.85 142.72 1.85L142.72 1.85L142.74 1.85Q142.80 1.86 142.88 1.89L142.88 1.89Q142.89 1.89 142.99 1.96L142.99 1.96Q143.06 2.01 143.10 2.06L143.10 2.06Q143.21 2.20 143.28 2.45L143.28 2.45Q143.40 2.84 143.34 3.49L143.34 3.49Q143.21 4.81 142.64 5.76L142.64 5.76Q142.55 5.90 142.86 5.91L142.86 5.91Q143.06 5.92 143.22 5.89L143.22 5.89Q143.92 5.76 144.08 5.50L144.08 5.50ZM152.11 10.27Q152.44 10.90 152.26 11.59L152.26 11.59Q152.09 12.24 151.53 12.70L151.53 12.70Q151.35 12.84 151.55 12.91L151.55 12.91Q151.70 12.95 151.87 12.93L151.87 12.93Q152.49 12.88 152.84 12.58L152.84 12.58Q153.47 12.07 153.69 11.35L153.69 11.35Q153.93 10.57 153.57 9.88L153.57 9.88Q153.43 9.63 152.72 9.86L152.72 9.86Q152.45 9.95 152.26 10.07L152.26 10.07Q152.07 10.19 152.11 10.27L152.11 10.27ZM178.21 2.21Q178.17 2.05 177.62 2.15L177.62 2.15Q176.92 2.28 176.76 2.54L176.76 2.54Q175.88 4.03 174.95 6.51L174.95 6.51L174.95 6.41Q174.95 5.55 174.78 2.12L174.78 2.12Q174.77 2.03 174.54 2.02L174.54 2.02Q174.40 1.92 173.98 2.00L173.98 2.00Q173.27 2.13 173.13 2.39L173.13 2.39Q170.99 6.30 170.39 11.14L170.39 11.14Q170.37 11.27 170.75 11.23L170.75 11.23Q171.00 11.21 171.18 11.16L171.18 11.16Q171.82 10.99 171.85 10.75L171.85 10.75Q172.25 7.51 173.42 4.58L173.42 4.58Q173.48 5.81 173.48 6.71L173.48 6.71Q173.49 8.26 173.41 8.86L173.41 8.86Q173.22 10.15 173.22 10.99L173.22 10.99Q173.22 11.20 173.90 11.03L173.90 11.03Q174.58 10.86 174.67 10.66L174.67 10.66Q175.14 9.61 175.86 7.67L175.86 7.67Q176.65 5.54 177.02 4.66L177.02 4.66Q177.06 5.91 176.82 7.85L176.82 7.85Q176.48 10.57 176.45 11.04L176.45 11.04Q176.44 11.12 176.66 11.12L176.66 11.12Q176.88 11.13 177.16 11.08L177.16 11.08Q177.88 10.94 177.91 10.65L177.91 10.65Q177.97 9.88 178.14 8.54L178.14 8.54Q178.34 7.03 178.40 6.43L178.40 6.43Q178.64 3.95 178.21 2.21L178.21 2.21ZM188.79 5.20Q188.67 6.64 188.41 7.92L188.41 7.92Q188.00 9.88 187.22 10.64L187.22 10.64Q187.13 10.55 187.06 10.38L187.06 10.38Q186.87 9.97 186.89 9.03L186.89 9.03Q186.92 7.34 187.49 5.48L187.49 5.48Q187.99 3.85 188.69 3.01L188.69 3.01Q188.76 3.25 188.81 3.62L188.81 3.62Q188.88 4.21 188.79 5.20L188.79 5.20ZM189.72 1.96Q189.52 1.79 188.78 2.05L188.78 2.05Q188.28 2.24 188.30 2.39L188.30 2.39Q188.05 2.48 187.87 2.63L187.87 2.63Q186.89 3.40 186.22 5.22L186.22 5.22Q185.68 6.70 185.49 8.50L185.49 8.50Q185.40 9.28 185.43 9.92L185.43 9.92Q185.47 10.77 185.83 11.13L185.83 11.13Q186.02 11.31 186.45 11.33L186.45 11.33Q186.99 11.36 187.82 11.02L187.82 11.02Q188.50 10.74 189.02 9.94L189.02 9.94Q189.49 9.21 189.81 7.85L189.81 7.85Q190.02 6.94 190.14 5.84L190.14 5.84Q190.31 4.44 190.31 3.78L190.31 3.78Q190.29 2.45 189.72 1.96L189.72 1.96ZM201.95 3.48Q201.91 1.70 201.07 1.01L201.07 1.01Q200.60 0.64 199.71 0.68L199.71 0.68Q198.71 0.72 197.46 1.40L197.46 1.40Q197.27 1.50 197.31 1.60L197.31 1.60Q197.34 1.70 197.54 1.71L197.54 1.71Q198.04 1.72 198.57 1.44L198.57 1.44Q198.58 1.43 198.60 1.42L198.60 1.42Q198.65 1.39 198.73 1.35L198.73 1.35Q198.77 1.34 198.84 1.31L198.84 1.31Q198.87 1.29 198.98 1.26L198.98 1.26L198.99 1.26Q198.99 1.25 198.99 1.26L198.99 1.26Q199.00 1.25 199.02 1.25L199.02 1.25Q199.06 1.25 199.10 1.26L199.10 1.26Q199.10 1.26 199.12 1.26L199.12 1.26Q199.17 1.26 199.17 1.26L199.17 1.26Q199.25 1.28 199.36 1.31L199.36 1.31Q199.36 1.31 199.36 1.31L199.36 1.31Q199.36 1.31 199.37 1.31L199.37 1.31Q199.40 1.33 199.45 1.35L199.45 1.35Q199.50 1.37 199.58 1.43L199.58 1.43Q199.71 1.51 199.84 1.65L199.84 1.65Q200.04 1.85 200.20 2.23L200.20 2.23Q200.79 3.66 200.26 6.11L200.26 6.11Q199.91 7.70 199.20 8.97L199.20 8.97Q198.84 9.60 198.44 10.03L198.44 10.03Q198.26 10.22 198.05 10.39L198.05 10.39Q199.14 5.68 199.60 1.78L199.60 1.78Q199.61 1.71 199.39 1.70L199.39 1.70Q199.17 1.69 198.90 1.74L198.90 1.74Q198.17 1.87 198.14 2.17L198.14 2.17Q197.67 6.19 196.49 11.16L196.49 11.16Q196.43 11.42 197.07 11.30L197.07 11.30Q197.37 11.25 197.63 11.12L197.63 11.12Q197.83 11.03 197.89 10.97L197.89 10.97Q198.15 10.93 198.54 10.77L198.54 10.77Q200.10 10.12 201.09 7.78L201.09 7.78Q202.00 5.63 201.95 3.48L201.95 3.48ZM213.19 1.42Q212.48 1.19 211.30 1.57L211.30 1.57Q209.79 2.06 209.23 3.77L209.23 3.77Q208.88 4.83 209.06 6.11L209.06 6.11Q209.15 6.76 209.41 7.16L209.41 7.16Q209.00 7.38 208.70 7.70L208.70 7.70Q207.70 8.80 207.81 10.01L207.81 10.01Q207.88 10.70 208.36 11.11L208.36 11.11Q208.76 11.44 209.58 11.42L209.58 11.42Q210.42 11.39 211.12 10.95L211.12 10.95Q211.87 10.49 212.17 9.76L212.17 9.76Q212.24 9.61 211.96 9.60L211.96 9.60Q211.78 9.59 211.59 9.63L211.59 9.63Q210.84 9.76 210.74 10.02L210.74 10.02Q210.54 10.51 210.19 10.80L210.19 10.80Q210.18 10.81 210.16 10.82L210.16 10.82Q210.12 10.81 210.11 10.81L210.11 10.81Q210.04 10.79 209.96 10.75L209.96 10.75Q209.79 10.68 209.64 10.52L209.64 10.52Q209.35 10.23 209.28 9.63L209.28 9.63Q209.18 8.83 209.81 7.86L209.81 7.86Q209.89 7.74 209.99 7.62L209.99 7.62Q210.21 7.70 210.48 7.72L210.48 7.72Q210.88 7.74 211.37 7.51L211.37 7.51Q211.79 7.32 211.64 7.18L211.64 7.18Q211.35 6.90 210.93 6.84L210.93 6.84Q210.89 6.79 210.85 6.75L210.85 6.75Q210.65 6.45 210.54 5.89L210.54 5.89Q210.35 4.89 210.53 4.00L210.53 4.00Q210.80 2.70 211.57 2.04L211.57 2.04Q211.62 2.00 211.72 1.93L211.72 1.93Q211.72 1.93 211.72 1.93L211.72 1.93Q211.85 1.94 211.83 1.93L211.83 1.93Q212.41 2.02 212.30 2.62L212.30 2.62Q212.25 2.86 212.88 2.75L212.88 2.75Q213.19 2.69 213.44 2.58L213.44 2.58Q213.72 2.45 213.74 2.36L213.74 2.36Q213.88 1.63 213.19 1.42L213.19 1.42ZM223.45 5.31Q223.30 6.24 222.40 7.18L222.40 7.18Q222.21 7.38 221.97 7.58L221.97 7.58Q221.91 7.63 221.85 7.68L221.85 7.68Q221.63 7.59 221.38 7.58L221.38 7.58Q221.94 4.74 222.08 2.66L222.08 2.66Q222.35 2.80 222.58 2.99L222.58 2.99Q223.10 3.39 223.33 4.03L223.33 4.03Q223.56 4.65 223.45 5.31L223.45 5.31ZM220.47 2.40Q220.47 2.40 220.49 2.39L220.49 2.39Q220.48 2.40 220.47 2.40L220.47 2.40ZM225.41 11.42Q224.68 10.88 223.15 8.99L223.15 8.99Q222.48 8.17 222.36 8.05L222.36 8.05Q222.82 7.84 223.25 7.50L223.25 7.50Q224.45 6.56 224.81 5.41L224.81 5.41Q225.05 4.60 224.85 3.84L224.85 3.84Q224.64 3.07 224.01 2.53L224.01 2.53Q222.77 1.46 220.70 1.88L220.70 1.88Q220.57 1.91 220.37 1.96L220.37 1.96Q219.63 2.14 219.69 2.37L219.69 2.37Q219.75 2.58 220.47 2.40L220.47 2.40Q220.53 2.39 220.58 2.38L220.58 2.38Q220.62 2.37 220.66 2.37L220.66 2.37Q220.54 5.11 219.30 10.79L219.30 10.79Q219.25 11.04 219.88 10.92L219.88 10.92Q220.19 10.87 220.45 10.75L220.45 10.75Q220.73 10.62 220.75 10.53L220.75 10.53Q221.04 9.17 221.14 8.72L221.14 8.72Q221.14 8.72 221.14 8.72L221.14 8.72Q221.15 8.72 221.15 8.72L221.15 8.72Q221.26 8.85 221.94 9.70L221.94 9.70Q223.26 11.34 224.03 11.92L224.03 11.92Q224.25 12.09 224.97 11.83L224.97 11.83Q225.16 11.76 225.30 11.67L225.30 11.67Q225.54 11.52 225.41 11.42L225.41 11.42ZM237.77 0.74Q237.46 0.79 237.21 0.91L237.21 0.91Q236.93 1.04 236.91 1.13L236.91 1.13Q236.02 3.96 235.40 7.39L235.40 7.39Q235.32 6.88 235.20 6.21L235.20 6.21Q234.91 4.44 234.86 4.05L234.86 4.05Q234.71 2.77 234.52 2.37L234.52 2.37Q234.52 2.37 234.51 2.35L234.51 2.35L234.51 2.34Q234.51 2.34 234.51 2.33L234.51 2.33Q234.55 2.08 233.93 2.20L233.93 2.20Q233.63 2.26 233.37 2.37L233.37 2.37Q233.08 2.51 233.07 2.60L233.07 2.60Q232.89 3.71 232.24 6.73L232.24 6.73Q231.70 9.34 231.49 10.89L231.49 10.89Q231.48 11.01 231.86 10.98L231.86 10.98Q232.11 10.96 232.29 10.91L232.29 10.91Q232.93 10.74 232.96 10.50L232.96 10.50Q233.15 8.97 233.71 6.38L233.71 6.38Q233.73 6.54 233.74 6.61L233.74 6.61Q233.96 7.90 234.14 8.95L234.14 8.95Q234.40 10.45 234.62 11.09L234.62 11.09Q234.68 11.24 235.02 11.21L235.02 11.21Q235.33 11.18 235.67 11.05L235.67 11.05Q236.26 10.89 236.29 10.65L236.29 10.65Q237.06 5.00 238.35 0.87L238.35 0.87Q238.43 0.62 237.77 0.74L237.77 0.74ZM259.42 5.50Q259.88 4.74 260.08 3.53L260.08 3.53Q260.32 2.15 259.82 1.57L259.82 1.57Q259.53 1.22 258.78 1.27L258.78 1.27Q257.84 1.33 256.95 1.85L256.95 1.85Q255.70 2.59 255.09 4.34L255.09 4.34Q254.47 6.10 255.09 7.18L255.09 7.18Q255.38 7.68 256.76 8.17L256.76 8.17Q257.33 8.37 257.53 8.48L257.53 8.48Q257.97 8.74 258.06 9.11L258.06 9.11Q258.15 9.50 257.81 10.17L257.81 10.17Q257.63 10.51 257.35 10.76L257.35 10.76Q257.24 10.87 257.08 10.97L257.08 10.97Q257.00 11.02 256.98 11.03L256.98 11.03Q256.92 11.07 256.86 11.09L256.86 11.09Q256.96 11.05 256.83 11.10L256.83 11.10Q256.84 11.10 256.90 11.09L256.90 11.09Q256.86 11.09 256.81 11.09L256.81 11.09Q256.81 11.10 256.71 11.09L256.71 11.09Q256.66 11.09 256.51 11.05L256.51 11.05Q256.16 10.97 255.86 10.64L255.86 10.64Q255.64 10.39 255.55 9.93L255.55 9.93Q255.45 9.44 255.67 9.28L255.67 9.28Q255.87 9.13 255.85 9.06L255.85 9.06Q255.82 8.97 255.59 8.96L255.59 8.96Q254.97 8.95 254.56 9.24L254.56 9.24Q254.17 9.53 254.09 9.86L254.09 9.86Q254.01 10.20 254.17 10.62L254.17 10.62Q254.44 11.36 255.31 11.61L255.31 11.61Q256.20 11.87 257.47 11.37L257.47 11.37Q258.48 10.96 259.05 10.24L259.05 10.24Q259.42 9.76 259.51 9.24L259.51 9.24Q259.62 8.62 259.23 8.23L259.23 8.23Q258.97 7.96 258.41 7.75L258.41 7.75Q258.25 7.70 257.94 7.59L257.94 7.59Q257.65 7.50 257.52 7.44L257.52 7.44Q256.98 7.23 256.70 6.97L256.70 6.97Q256.40 6.69 256.30 5.96L256.30 5.96Q256.10 4.53 257.05 2.97L257.05 2.97Q257.47 2.29 257.97 1.95L257.97 1.95Q258.02 1.91 258.12 1.86L258.12 1.86Q258.11 1.86 258.17 1.84L258.17 1.84Q258.15 1.84 258.19 1.83L258.19 1.83Q258.17 1.84 258.21 1.83L258.21 1.83Q258.13 1.85 258.06 1.85L258.06 1.85Q258.08 1.85 258.06 1.85L258.06 1.85L258.08 1.85Q258.14 1.86 258.22 1.89L258.22 1.89Q258.23 1.89 258.33 1.96L258.33 1.96Q258.40 2.01 258.44 2.06L258.44 2.06Q258.56 2.20 258.62 2.45L258.62 2.45Q258.74 2.84 258.68 3.49L258.68 3.49Q258.56 4.81 257.98 5.76L257.98 5.76Q257.89 5.90 258.20 5.91L258.20 5.91Q258.40 5.92 258.56 5.89L258.56 5.89Q259.26 5.76 259.42 5.50L259.42 5.50ZM273.75 2.21Q273.71 2.05 273.16 2.15L273.16 2.15Q272.46 2.28 272.30 2.54L272.30 2.54Q271.42 4.03 270.48 6.51L270.48 6.51L270.48 6.41Q270.48 5.55 270.32 2.12L270.32 2.12Q270.31 2.03 270.08 2.02L270.08 2.02Q269.94 1.92 269.52 2.00L269.52 2.00Q268.81 2.13 268.67 2.39L268.67 2.39Q266.53 6.30 265.92 11.14L265.92 11.14Q265.91 11.27 266.29 11.23L266.29 11.23Q266.54 11.21 266.72 11.16L266.72 11.16Q267.36 10.99 267.39 10.75L267.39 10.75Q267.79 7.51 268.96 4.58L268.96 4.58Q269.01 5.81 269.02 6.71L269.02 6.71Q269.03 8.26 268.95 8.86L268.95 8.86Q268.76 10.15 268.75 10.99L268.75 10.99Q268.75 11.20 269.44 11.03L269.44 11.03Q270.12 10.86 270.20 10.66L270.20 10.66Q270.68 9.61 271.40 7.67L271.40 7.67Q272.19 5.54 272.56 4.66L272.56 4.66Q272.60 5.91 272.36 7.85L272.36 7.85Q272.02 10.57 271.99 11.04L271.99 11.04Q271.98 11.12 272.20 11.12L272.20 11.12Q272.42 11.13 272.70 11.08L272.70 11.08Q273.42 10.94 273.45 10.65L273.45 10.65Q273.51 9.88 273.68 8.54L273.68 8.54Q273.88 7.03 273.94 6.43L273.94 6.43Q274.18 3.95 273.75 2.21L273.75 2.21ZM282.50 2.53Q282.26 3.62 281.64 6.79L281.64 6.79Q281.40 8.03 281.21 8.93L281.21 8.93Q280.82 10.78 280.81 10.91L280.81 10.91Q280.81 10.99 281.04 11.00L281.04 11.00Q281.26 11.01 281.54 10.96L281.54 10.96Q282.27 10.81 282.28 10.52L282.28 10.52Q282.28 10.23 282.44 9.62L282.44 9.62Q282.52 9.32 282.67 8.57L282.67 8.57Q282.84 7.77 283.10 6.44L283.10 6.44Q283.70 3.36 283.94 2.27L283.94 2.27Q284.00 2.02 283.36 2.13L283.36 2.13Q283.06 2.19 282.80 2.31L282.80 2.31Q282.52 2.44 282.50 2.53L282.50 2.53ZM293.03 11.33Q291.99 11.36 291.55 11.16L291.55 11.16Q292.40 6.57 293.51 2.08L293.51 2.08Q293.58 1.83 292.93 1.95L292.93 1.95Q292.63 2.00 292.38 2.12L292.38 2.12Q292.10 2.25 292.08 2.34L292.08 2.34Q290.96 6.83 290.10 11.47L290.10 11.47Q290.01 11.56 290.08 11.61L290.08 11.61Q290.08 11.63 290.07 11.70L290.07 11.70Q290.06 11.74 290.06 11.78L290.06 11.78Q290.04 11.94 290.68 11.83L290.68 11.83Q291.17 11.95 292.08 11.92L292.08 11.92Q292.69 11.91 293.11 11.65L293.11 11.65Q293.29 11.54 293.27 11.44L293.27 11.44Q293.24 11.33 293.03 11.33L293.03 11.33ZM305.22 1.42Q304.51 1.19 303.33 1.57L303.33 1.57Q301.82 2.06 301.26 3.77L301.26 3.77Q300.91 4.83 301.09 6.11L301.09 6.11Q301.18 6.76 301.44 7.16L301.44 7.16Q301.03 7.38 300.73 7.70L300.73 7.70Q299.74 8.80 299.84 10.01L299.84 10.01Q299.91 10.70 300.39 11.11L300.39 11.11Q300.79 11.44 301.62 11.42L301.62 11.42Q302.45 11.39 303.15 10.95L303.15 10.95Q303.91 10.49 304.21 9.76L304.21 9.76Q304.27 9.61 303.99 9.60L303.99 9.60Q303.82 9.59 303.63 9.63L303.63 9.63Q302.87 9.76 302.77 10.02L302.77 10.02Q302.57 10.51 302.22 10.80L302.22 10.80Q302.21 10.81 302.20 10.82L302.20 10.82Q302.15 10.81 302.14 10.81L302.14 10.81Q302.07 10.79 301.99 10.75L301.99 10.75Q301.83 10.68 301.67 10.52L301.67 10.52Q301.38 10.23 301.31 9.63L301.31 9.63Q301.21 8.83 301.84 7.86L301.84 7.86Q301.92 7.74 302.03 7.62L302.03 7.62Q302.24 7.70 302.51 7.72L302.51 7.72Q302.91 7.74 303.41 7.51L303.41 7.51Q303.82 7.32 303.67 7.18L303.67 7.18Q303.39 6.90 302.96 6.84L302.96 6.84Q302.92 6.79 302.89 6.75L302.89 6.75Q302.68 6.45 302.57 5.89L302.57 5.89Q302.38 4.89 302.57 4.00L302.57 4.00Q302.83 2.70 303.60 2.04L303.60 2.04Q303.65 2.00 303.75 1.93L303.75 1.93Q303.75 1.93 303.75 1.93L303.75 1.93Q303.88 1.94 303.86 1.93L303.86 1.93Q304.45 2.02 304.33 2.62L304.33 2.62Q304.28 2.86 304.91 2.75L304.91 2.75Q305.22 2.69 305.47 2.58L305.47 2.58Q305.75 2.45 305.77 2.36L305.77 2.36Q305.91 1.63 305.22 1.42L305.22 1.42ZM316.66 5.50Q317.11 4.74 317.32 3.53L317.32 3.53Q317.56 2.15 317.06 1.57L317.06 1.57Q316.77 1.22 316.02 1.27L316.02 1.27Q315.08 1.33 314.19 1.85L314.19 1.85Q312.94 2.59 312.33 4.34L312.33 4.34Q311.71 6.10 312.33 7.18L312.33 7.18Q312.62 7.68 314.00 8.17L314.00 8.17Q314.56 8.37 314.77 8.48L314.77 8.48Q315.21 8.74 315.29 9.11L315.29 9.11Q315.39 9.50 315.05 10.17L315.05 10.17Q314.87 10.51 314.59 10.76L314.59 10.76Q314.47 10.87 314.32 10.97L314.32 10.97Q314.24 11.02 314.22 11.03L314.22 11.03Q314.16 11.07 314.10 11.09L314.10 11.09Q314.19 11.05 314.07 11.10L314.07 11.10Q314.08 11.10 314.14 11.09L314.14 11.09Q314.10 11.09 314.05 11.09L314.05 11.09Q314.04 11.10 313.95 11.09L313.95 11.09Q313.90 11.09 313.75 11.05L313.75 11.05Q313.39 10.97 313.09 10.64L313.09 10.64Q312.87 10.39 312.79 9.93L312.79 9.93Q312.68 9.44 312.91 9.28L312.91 9.28Q313.11 9.13 313.09 9.06L313.09 9.06Q313.06 8.97 312.83 8.96L312.83 8.96Q312.20 8.95 311.79 9.24L311.79 9.24Q311.40 9.53 311.33 9.86L311.33 9.86Q311.25 10.20 311.40 10.62L311.40 10.62Q311.68 11.36 312.55 11.61L312.55 11.61Q313.43 11.87 314.71 11.37L314.71 11.37Q315.72 10.96 316.29 10.24L316.29 10.24Q316.66 9.76 316.75 9.24L316.75 9.24Q316.85 8.62 316.47 8.23L316.47 8.23Q316.20 7.96 315.64 7.75L315.64 7.75Q315.49 7.70 315.18 7.59L315.18 7.59Q314.88 7.50 314.75 7.44L314.75 7.44Q314.22 7.23 313.94 6.97L313.94 6.97Q313.64 6.69 313.54 5.96L313.54 5.96Q313.34 4.53 314.29 2.97L314.29 2.97Q314.71 2.29 315.21 1.95L315.21 1.95Q315.26 1.91 315.36 1.86L315.36 1.86Q315.35 1.86 315.40 1.84L315.40 1.84Q315.39 1.84 315.43 1.83L315.43 1.83Q315.40 1.84 315.44 1.83L315.44 1.83Q315.37 1.85 315.29 1.85L315.29 1.85Q315.31 1.85 315.30 1.85L315.30 1.85L315.32 1.85Q315.38 1.86 315.46 1.89L315.46 1.89Q315.47 1.89 315.57 1.96L315.57 1.96Q315.64 2.01 315.68 2.06L315.68 2.06Q315.79 2.20 315.86 2.45L315.86 2.45Q315.98 2.84 315.92 3.49L315.92 3.49Q315.79 4.81 315.22 5.76L315.22 5.76Q315.13 5.90 315.44 5.91L315.44 5.91Q315.64 5.92 315.80 5.89L315.80 5.89Q316.50 5.76 316.66 5.50L316.66 5.50ZM324.30 10.22Q324.34 10.29 324.81 11.23L324.81 11.23Q324.91 11.44 325.60 11.25L325.60 11.25Q325.81 11.20 326.00 11.11L326.00 11.11Q326.33 10.96 326.27 10.84L326.27 10.84Q325.79 9.91 325.77 9.83L325.77 9.83Q325.67 9.63 324.98 9.81L324.98 9.81Q324.21 10.01 324.30 10.22L324.30 10.22ZM339.77 0.91Q340.10 1.53 339.92 2.22L339.92 2.22Q339.75 2.87 339.19 3.34L339.19 3.34Q339.01 3.48 339.21 3.53L339.21 3.53Q339.36 3.58 339.53 3.57L339.53 3.57Q340.15 3.51 340.50 3.22L340.50 3.22Q341.13 2.70 341.35 1.98L341.35 1.98Q341.59 1.20 341.23 0.51L341.23 0.51Q341.09 0.27 340.38 0.50L340.38 0.50Q340.11 0.59 339.92 0.70L339.92 0.70Q339.73 0.83 339.77 0.91L339.77 0.91ZM342.16 0.91Q342.49 1.53 342.31 2.22L342.31 2.22Q342.14 2.87 341.58 3.34L341.58 3.34Q341.41 3.48 341.61 3.53L341.61 3.53Q341.76 3.58 341.92 3.57L341.92 3.57Q342.54 3.51 342.90 3.22L342.90 3.22Q343.53 2.70 343.75 1.98L343.75 1.98Q343.98 1.20 343.62 0.51L343.62 0.51Q343.49 0.27 342.77 0.50L342.77 0.50Q342.50 0.59 342.32 0.70L342.32 0.70Q342.12 0.83 342.16 0.91L342.16 0.91Z"></path></g></svg>