<svg data-v-423bf9ae="" xmlns="http://www.w3.org/2000/svg" viewBox="0 0 330.64630609160736 60" class="font"><!----><!----><!----><g data-v-423bf9ae="" id="482498f9-5088-4b30-b32e-e7b06a07191c" fill="black" transform="matrix(5.385996243345147,0,0,5.385996243345147,0.538595693953198,-18.63554768427082)"><path d="M2.23 7.94L2.23 7.94L4.07 7.74Q4.20 7.74 4.32 7.81Q4.44 7.88 4.44 7.99Q4.44 8.11 4.17 8.22L4.17 8.22Q3.00 8.68 2.10 8.68Q1.20 8.68 0.55 8.28Q-0.10 7.88-0.10 7.08L-0.10 7.08Q-0.10 6.03 1.05 5.18Q2.20 4.33 3.88 3.89Q5.56 3.46 7.15 3.46Q8.75 3.46 9.86 3.74Q10.98 4.03 11.70 4.69Q12.43 5.35 12.43 6.30L12.43 6.30Q12.43 6.94 11.67 7.57Q10.91 8.19 9.90 8.57Q8.90 8.96 7.94 9.11L7.94 9.11Q7.69 9.20 7.69 9.28L7.69 9.28Q7.69 9.39 9.32 11.33Q10.95 13.27 10.95 13.64Q10.95 14 10.52 14.30Q10.09 14.60 9.57 14.60Q9.04 14.60 8.62 14.47Q8.20 14.34 7.81 14.06Q7.41 13.78 7.10 13.52Q6.79 13.27 6.42 12.83Q6.05 12.39 5.87 12.17L5.87 12.17Q5.24 11.35 4.94 10.92L4.94 10.92Q3.32 12.92 3.19 13.04Q3.05 13.16 2.98 13.22Q2.91 13.29 2.87 13.33L2.87 13.33Q2.76 13.44 2.59 13.44Q2.42 13.44 2.23 13.09L2.23 13.09Q2.30 12.91 3.02 11.86Q3.75 10.81 4.13 10.40L4.13 10.40Q4.31 10.14 4.31 10.07Q4.31 10.00 4.14 9.88L4.14 9.88Q3.86 9.66 3.86 9.40Q3.86 9.14 4.26 9.07L4.26 9.07L5.36 8.86Q6.65 7.20 6.92 6.93Q7.18 6.66 7.45 6.66Q7.71 6.66 7.71 6.92L7.71 6.92Q7.71 7.10 7.42 7.49L7.42 7.49L6.64 8.60Q6.76 8.60 7.86 8.32Q8.96 8.04 10.15 7.55Q11.34 7.06 11.34 6.64L11.34 6.64Q11.34 6.02 9.60 6.02L9.60 6.02Q8.32 6.02 6.53 6.34Q4.75 6.66 3.45 7.12Q2.16 7.57 2.16 7.91L2.16 7.91Q2.16 7.94 2.23 7.94ZM13.62 10.71L13.62 10.71L14.31 10.64Q14.78 10.64 14.78 11.12L14.78 11.12Q14.78 11.37 14.32 11.68Q13.86 11.98 13.39 12.24Q12.92 12.50 12.92 12.64L12.92 12.64Q12.92 12.74 13.15 12.77L13.15 12.77Q13.64 12.77 15.01 11.98Q16.38 11.20 16.48 11.20L16.48 11.20Q16.67 11.20 16.67 11.40L16.67 11.40Q16.66 11.54 15.79 12.09Q14.91 12.64 13.74 13.15Q12.57 13.66 11.96 13.66L11.96 13.66Q10.99 13.66 10.99 12.64L10.99 12.64Q10.99 12.35 11.39 12.00Q11.79 11.65 12.19 11.40Q12.59 11.14 12.59 11.08Q12.59 11.02 12.39 10.93L12.39 10.93Q11.80 10.68 11.80 10.26L11.80 10.26Q11.80 9.48 13.11 8.77Q14.42 8.06 15.54 8.06L15.54 8.06Q16.16 8.06 16.56 8.29Q16.97 8.53 16.97 9.00Q16.97 9.46 16.32 9.87Q15.67 10.28 15.39 10.28L15.39 10.28Q15.27 10.28 15.18 10.22Q15.09 10.16 15.09 10.09Q15.09 10.02 15.48 9.86Q15.86 9.70 15.86 9.56L15.86 9.56Q15.86 9.49 15.66 9.49Q15.46 9.49 14.34 9.93Q13.22 10.37 13.22 10.56L13.22 10.56Q13.22 10.71 13.62 10.71ZM16.65 7.78L16.65 7.78Q16.65 7.56 17.85 7.38Q19.05 7.20 20.43 7.13L20.43 7.13Q21.57 6.09 22.50 5.36L22.50 5.36L22.81 5.11Q23.02 5.11 23.02 5.42L23.02 5.42L23.04 6.10Q23.00 6.26 22.46 7.07L22.46 7.07L23.14 7.07Q24.70 7.07 24.94 7.37Q25.19 7.67 25.19 7.85L25.19 7.85Q25.19 8.09 24.71 8.11Q24.23 8.12 21.73 8.12L21.73 8.12Q19.73 10.18 18.59 11.77L18.59 11.77Q18.16 12.36 17.84 12.82Q17.51 13.29 17.34 13.47Q17.16 13.66 17.01 13.66L17.01 13.66Q16.55 13.66 16.23 13.36Q15.90 13.05 15.90 12.60L15.90 12.60Q15.90 11.37 19.33 8.13L19.33 8.13L17.18 8.13Q16.65 8.13 16.65 7.78ZM22.86 8.20L22.86 8.20Q22.96 8.20 23.04 8.29Q23.13 8.39 23.13 8.50Q23.13 8.62 22.99 8.81L22.99 8.81Q22.44 9.48 22.27 9.65Q22.09 9.83 22.09 9.88Q22.09 9.94 22.18 9.94Q22.27 9.94 22.93 9.70Q23.59 9.45 23.80 9.45Q24.01 9.45 24.23 9.63Q24.46 9.80 24.46 10.07Q24.46 10.35 23.60 11.32Q22.75 12.29 22.75 12.59L22.75 12.59Q22.75 12.64 22.79 12.64L22.79 12.64Q22.86 12.64 23.04 12.55Q23.23 12.46 23.27 12.46L23.27 12.46Q23.42 12.46 23.42 12.57L23.42 12.57Q23.42 13.01 22.74 13.44Q22.05 13.87 21.58 13.87Q21.11 13.87 20.82 13.62Q20.52 13.36 20.52 12.92Q20.52 12.49 20.95 11.95Q21.38 11.41 21.83 11.19Q22.29 10.96 22.29 10.82L22.29 10.82Q22.29 10.78 22.27 10.77L22.27 10.77Q21.66 11.02 21.27 11.02L21.27 11.02Q20.50 11.02 20.50 10.57L20.50 10.57Q20.50 10.05 21.39 9.21Q22.29 8.37 22.86 8.20ZM28.34 10.11L28.34 10.11Q28.34 10.49 28.78 10.49L28.78 10.49Q29.20 10.49 29.71 10.28Q30.21 10.07 30.25 10.07Q30.30 10.07 30.34 10.14Q30.39 10.21 30.39 10.28L30.39 10.28Q30.39 10.43 29.74 10.68Q29.09 10.92 28.80 10.92Q28.50 10.92 28.38 10.91Q28.27 10.91 28.20 11.06L28.20 11.06Q27.16 13.01 26.14 13.51L26.14 13.51Q25.69 13.73 25.19 13.73Q24.70 13.73 24.38 13.40Q24.07 13.08 24.07 12.36L24.07 12.36Q24.07 11.37 24.72 10.51Q25.37 9.65 26.19 9.21Q27.02 8.78 27.69 8.78L27.69 8.78Q28.83 8.90 28.83 9.46L28.83 9.46Q28.83 9.62 28.75 9.74Q28.67 9.86 28.62 9.88Q28.57 9.90 28.50 9.91L28.50 9.91Q28.34 9.95 28.34 10.11ZM27.19 10.75Q26.74 11.09 26.31 11.61Q25.89 12.12 25.89 12.45Q25.89 12.78 26.07 12.78L26.07 12.78Q26.35 12.78 27.10 11.92Q27.85 11.06 27.85 10.50L27.85 10.50Q27.85 10.42 27.74 10.42Q27.64 10.42 27.19 10.75ZM34.01 7.94L34.01 7.94L35.85 7.74Q35.98 7.74 36.10 7.81Q36.22 7.88 36.22 7.99Q36.22 8.11 35.95 8.22L35.95 8.22Q34.78 8.68 33.88 8.68Q32.98 8.68 32.33 8.28Q31.68 7.88 31.68 7.08L31.68 7.08Q31.68 6.03 32.83 5.18Q33.98 4.33 35.66 3.89Q37.34 3.46 38.93 3.46Q40.53 3.46 41.64 3.74Q42.76 4.03 43.48 4.69Q44.21 5.35 44.21 6.30L44.21 6.30Q44.21 6.94 43.45 7.57Q42.69 8.19 41.69 8.57Q40.68 8.96 39.72 9.11L39.72 9.11Q39.47 9.20 39.47 9.28L39.47 9.28Q39.47 9.39 41.10 11.33Q42.73 13.27 42.73 13.64Q42.73 14 42.30 14.30Q41.87 14.60 41.35 14.60Q40.82 14.60 40.40 14.47Q39.98 14.34 39.59 14.06Q39.19 13.78 38.88 13.52Q38.57 13.27 38.20 12.83Q37.83 12.39 37.65 12.17L37.65 12.17Q37.02 11.35 36.72 10.92L36.72 10.92Q35.10 12.92 34.97 13.04Q34.83 13.16 34.76 13.22Q34.69 13.29 34.65 13.33L34.65 13.33Q34.54 13.44 34.37 13.44Q34.20 13.44 34.01 13.09L34.01 13.09Q34.08 12.91 34.80 11.86Q35.53 10.81 35.91 10.40L35.91 10.40Q36.09 10.14 36.09 10.07Q36.09 10.00 35.92 9.88L35.92 9.88Q35.64 9.66 35.64 9.40Q35.64 9.14 36.04 9.07L36.04 9.07L37.14 8.86Q38.43 7.20 38.70 6.93Q38.96 6.66 39.23 6.66Q39.49 6.66 39.49 6.92L39.49 6.92Q39.49 7.10 39.20 7.49L39.20 7.49L38.42 8.60Q38.54 8.60 39.64 8.32Q40.74 8.04 41.93 7.55Q43.12 7.06 43.12 6.64L43.12 6.64Q43.12 6.02 41.38 6.02L41.38 6.02Q40.10 6.02 38.31 6.34Q36.53 6.66 35.23 7.12Q33.94 7.57 33.94 7.91L33.94 7.91Q33.94 7.94 34.01 7.94ZM46.66 12.87L46.66 12.87Q46.66 12.94 46.76 12.96L46.76 12.96Q46.86 12.96 47.44 12.56Q48.02 12.17 48.10 12.12Q48.17 12.08 48.24 12.08L48.24 12.08Q48.44 12.08 48.44 12.27Q48.44 12.46 47.45 13.10Q46.47 13.75 46.06 13.75L46.06 13.75Q45.89 13.75 45.70 13.61Q45.51 13.47 45.51 13.28Q45.51 13.09 45.61 12.87Q45.71 12.64 45.71 12.56Q45.71 12.49 45.67 12.49Q45.63 12.49 45.58 12.52L45.58 12.52Q44.23 13.54 43.58 13.54L43.58 13.54Q43.22 13.54 43.01 13.27Q42.80 13.01 42.76 12.74L42.76 12.74L42.73 12.47Q42.73 12.01 43.09 11.40Q43.44 10.79 44.02 10.24Q44.60 9.69 45.45 9.31Q46.30 8.93 47.18 8.93L47.18 8.93Q47.66 8.93 48.07 9.18Q48.48 9.44 48.48 9.77Q48.48 10.11 47.82 10.18L47.82 10.18Q47.33 10.29 46.21 10.98Q45.08 11.68 45.08 12.04L45.08 12.04Q45.08 12.19 45.23 12.19L45.23 12.19Q45.51 12.19 46.56 11.40Q47.60 10.60 47.81 10.60Q48.02 10.60 48.02 10.85L48.02 10.85Q48.02 11.03 47.89 11.19Q47.75 11.35 47.70 11.42L47.70 11.42Q47.59 11.56 47.12 12.05Q46.66 12.53 46.66 12.87ZM53.83 11.21L53.83 11.21Q53.82 11.35 52.92 11.95Q52.02 12.54 50.85 13.10Q49.67 13.66 49.16 13.66Q48.65 13.66 48.29 13.35Q47.92 13.03 47.92 12.63L47.92 12.63Q47.92 11.79 48.67 10.90Q49.42 10.01 50.41 9.46Q51.39 8.90 52.09 8.90Q52.78 8.90 53.13 9.08Q53.48 9.25 53.48 9.73Q53.48 10.21 52.87 10.83Q52.26 11.45 51.83 11.45L51.83 11.45Q51.55 11.45 51.55 11.28L51.55 11.28Q51.55 11.17 51.69 11.09L51.69 11.09Q51.84 11.00 52.18 10.70Q52.51 10.39 52.51 10.28L52.51 10.28Q52.51 10.23 52.43 10.23L52.43 10.23Q51.94 10.23 51.04 11.13Q50.15 12.03 50.15 12.47L50.15 12.47Q50.15 12.70 50.39 12.70Q50.64 12.70 51.18 12.41Q51.73 12.12 52.53 11.63Q53.33 11.14 53.45 11.08Q53.56 11.02 53.63 11.02L53.63 11.02Q53.83 11.02 53.83 11.21ZM61.17 5.35L61.17 5.35L57.74 9.25Q57.74 9.34 57.82 9.34Q57.90 9.34 58.37 9.16Q58.84 8.99 59.15 8.99L59.15 8.99Q59.74 8.99 59.74 9.56L59.74 9.56Q59.74 10.43 57.29 11.47L57.29 11.47Q57.29 11.58 58.18 12.63Q59.07 13.68 59.07 13.93L59.07 13.93Q59.07 14.49 58.13 14.49Q57.20 14.49 56.38 13.66Q55.55 12.84 55.55 11.94L55.55 11.94Q55.55 11.80 55.50 11.80Q55.45 11.80 55.38 11.88Q55.30 11.96 55.05 12.23Q54.80 12.50 54.60 12.70L54.60 12.70Q54.04 13.29 53.73 13.29Q53.42 13.29 53.13 13.02Q52.84 12.75 52.84 12.36L52.84 12.36Q52.84 11.75 53.85 10.35Q54.87 8.95 56.19 7.58Q57.51 6.22 58.87 5.17Q60.23 4.12 60.84 4.12L60.84 4.12Q61.04 4.12 61.17 4.42Q61.29 4.72 61.29 4.93Q61.29 5.14 61.17 5.35ZM58.63 9.94L58.63 9.94Q58.63 9.76 58.38 9.76Q58.13 9.76 57.57 10.08Q57.01 10.40 56.60 10.73Q56.20 11.06 56.20 11.12Q56.20 11.19 56.34 11.19L56.34 11.19Q56.81 11.19 57.72 10.76Q58.63 10.33 58.63 9.94Z"></path></g><!----><!----></svg>